<?xml version="1.0" encoding="utf-8"?>
<!-- Generator: Adobe Illustrator 22.0.0, SVG Export Plug-In . SVG Version: 6.00 Build 0)  -->
<svg version="1.1" id="Camada_1" xmlns="http://www.w3.org/2000/svg" xmlns:xlink="http://www.w3.org/1999/xlink" x="0px" y="0px"
	 viewBox="0 0 512.1 512.1" style="enable-background:new 0 0 512.1 512.1;" xml:space="preserve">
<style type="text/css">
	.st0{fill:none;stroke:#FFFFFF;stroke-width:15;}
	.st1{fill:#FFFFFF;}
</style>
<circle class="st0" cx="256.5" cy="255.5" r="243.5"/>
<g>
	<title>Layer 1</title>
	<g id="svg_1">
		<g id="svg_2">
			<g id="svg_3">
				<path id="svg_4" class="st1" d="M410,343l-65.6-43.5c-8.3-5.5-19.5-3.7-25.6,4.1L299.7,328c-2.5,3.2-6.9,4.2-10.5,2.2l-3.6-2
					c-12-6.5-27-14.7-57.2-44.7s-38.4-44.9-44.9-56.9l-2-3.6c-2-3.5-1.1-8,2.2-10.4l24.5-19c7.9-6.1,9.7-17.2,4.2-25.5L168.6,103
					c-5.6-8.4-16.9-11-25.7-5.7l-27.4,16.4c-8.6,5-14.9,13.2-17.6,22.8c-9.9,35.8-2.4,97.5,89,188.4
					c72.7,72.3,126.9,91.8,164.1,91.8c8.6,0,17.1-1.1,25.4-3.3c9.6-2.7,17.8-9,22.9-17.5l16.5-27.2C421,359.8,418.5,348.6,410,343
					L410,343z M406.5,363L390,390.3c-3.6,6.2-9.5,10.7-16.5,12.7c-33.2,9.1-91.2,1.6-179-85.7s-95.3-145-86.2-178
					c2-6.9,6.5-12.8,12.8-16.4l27.4-16.4c3.8-2.3,8.7-1.2,11.1,2.5l23.8,35.5l19.9,29.7c2.4,3.6,1.6,8.4-1.8,11.1l-24.5,19
					c-7.5,5.7-9.6,16-5,24.1l1.9,3.5c6.9,12.6,15.5,28.2,46.8,59.4c31.3,31.1,47,39.7,59.7,46.5l3.5,1.9c8.2,4.6,18.5,2.5,24.2-5
					l19.1-24.4c2.7-3.4,7.5-4.2,11.1-1.8l65.6,43.5C407.6,354.3,408.7,359.2,406.5,363z"/>
				<path id="svg_5" class="st1" d="M278.1,148.2c50.7,0.1,91.7,40.9,91.8,91.2c0,3,2.4,5.4,5.4,5.4s5.4-2.4,5.4-5.4
					c-0.1-56.3-45.9-101.9-102.6-102c-3,0-5.4,2.4-5.4,5.4S275.1,148.2,278.1,148.2z"/>
				<path id="svg_6" class="st1" d="M278.1,180.4c32.8,0,59.3,26.5,59.4,59c0,3,2.4,5.4,5.4,5.4c3,0,5.4-2.4,5.4-5.4
					c0-38.5-31.4-69.7-70.2-69.8c-3,0-5.4,2.4-5.4,5.4C272.7,178,275.1,180.4,278.1,180.4L278.1,180.4z"/>
				<path id="svg_7" class="st1" d="M278.1,212.6c14.9,0,27,12,27,26.8c0,3,2.4,5.4,5.4,5.4c3,0,5.4-2.4,5.4-5.4
					c0-20.7-16.9-37.5-37.8-37.6c-3,0-5.4,2.4-5.4,5.4S275.1,212.6,278.1,212.6L278.1,212.6z"/>
			</g>
		</g>
	</g>
	<g id="svg_8">
	</g>
	<g id="svg_9">
	</g>
	<g id="svg_10">
	</g>
	<g id="svg_11">
	</g>
	<g id="svg_12">
	</g>
	<g id="svg_13">
	</g>
	<g id="svg_14">
	</g>
	<g id="svg_15">
	</g>
	<g id="svg_16">
	</g>
	<g id="svg_17">
	</g>
	<g id="svg_18">
	</g>
	<g id="svg_19">
	</g>
	<g id="svg_20">
	</g>
	<g id="svg_21">
	</g>
	<g id="svg_22">
	</g>
</g>
</svg>
